<?xml version="1.0" encoding="utf-8"?>
<svg viewBox="94.9995 114.9994 249.9996 249.9996" xmlns="http://www.w3.org/2000/svg">
  <g fill="#f1502f" fill-rule="nonzero" stroke="none" stroke-width="0" stroke-linecap="butt" stroke-linejoin="miter" stroke-miterlimit="10" stroke-dasharray="" stroke-dashoffset="0" font-family="none" font-weight="none" font-size="none" text-anchor="none" style="mix-blend-mode: normal" transform="matrix(1.000002, 0, 0, 1.000002, -0.000406, -0.000455)">
    <path transform="translate(-238.33333,-260) scale(2.08333,2.08333)" d="M203,300c-28.66667,0 -43,-14.33333 -43,-43v-34c0,-28.66667 14.33333,-43 43,-43h34c28.66667,0 43,14.33333 43,43v34c0,28.66667 -14.33333,43 -43,43z"/>
  </g>
  <path d="M 261.457 231.68 C 261.544 208.853 243.139 190.262 220.312 190.119 L 220 190.119 C 197.075 190.148 178.514 208.756 178.543 231.68 C 178.543 249.499 174.855 259.578 171.789 264.877 C 170.29 267.458 170.27 270.642 171.737 273.241 C 173.218 275.828 175.978 277.417 178.959 277.397 L 199.22 277.397 C 199.22 293.394 216.537 303.392 230.39 295.393 C 236.82 291.682 240.781 284.821 240.781 277.397 L 261.042 277.397 C 264.022 277.417 266.782 275.828 268.263 273.241 C 269.731 270.642 269.71 267.458 268.211 264.877 C 265.146 259.578 261.457 249.499 261.457 231.68 Z M 220 289.866 C 213.126 289.837 207.561 284.271 207.532 277.397 L 232.469 277.397 C 232.44 284.271 226.875 289.837 220 289.866 Z M 270.341 211.575 C 269.768 211.83 269.15 211.972 268.523 211.99 C 266.927 212.005 265.469 211.092 264.782 209.652 C 260.68 201.397 254.391 194.425 246.599 189.496 C 243.88 187.796 244.02 183.789 246.851 182.285 C 248.166 181.585 249.753 181.641 251.015 182.43 C 260.134 188.172 267.473 196.339 272.211 206.016 C 273.225 208.068 272.389 210.553 270.341 211.575 Z M 171.478 211.99 C 170.85 211.972 170.233 211.83 169.66 211.575 C 167.612 210.553 166.776 208.068 167.789 206.016 C 172.528 196.339 179.867 188.172 188.985 182.43 C 191.704 180.73 195.244 182.612 195.356 185.817 C 195.409 187.305 194.663 188.707 193.401 189.496 C 185.61 194.425 179.321 201.397 175.218 209.652 C 174.532 211.092 173.073 212.005 171.478 211.99 Z" style="fill: rgb(255, 255, 255);" transform="matrix(1, 0, 0, 1, 0, 8.881784197001252e-16)"/>
</svg>